<?xml version="1.0" standalone="no"?>
<!DOCTYPE svg PUBLIC "-//W3C//DTD SVG 20010904//EN"
 "http://www.w3.org/TR/2001/REC-SVG-20010904/DTD/svg10.dtd">
<svg version="1.0" xmlns="http://www.w3.org/2000/svg"
 width="768.000000pt" height="768.000000pt" viewBox="0 0 768.000000 768.000000"
 preserveAspectRatio="xMidYMid meet">
<metadata>
Created by potrace 1.11, written by Peter Selinger 2001-2013
</metadata>
<g transform="translate(0.000000,768.000000) scale(0.100000,-0.100000)"
fill="#000000" stroke="none">
<path d="M3232 5321 c-192 -65 -282 -293 -190 -478 77 -153 284 -223 441 -148
261 123 264 478 5 611 -27 13 -48 21 -48 18 0 -4 -6 -2 -12 4 -20 16 -140 12
-196 -7z"/>
<path d="M2589 5286 c-2 -2 -24 -7 -49 -10 -25 -4 -56 -9 -70 -11 -14 -2 -50
-7 -80 -11 -30 -4 -64 -8 -75 -9 -11 -2 -42 -6 -70 -9 -27 -4 -59 -9 -70 -11
-11 -2 -47 -7 -79 -11 -33 -3 -67 -8 -75 -9 -9 -2 -21 -4 -27 -4 -9 -1 -29
-79 -49 -189 -2 -13 -6 -31 -9 -40 -3 -9 -8 -33 -11 -52 -3 -19 -8 -43 -11
-53 -3 -11 -8 -29 -9 -40 -2 -12 -8 -40 -14 -62 -5 -22 -12 -51 -15 -65 -14
-71 -38 -185 -57 -270 -11 -52 -23 -112 -26 -132 -6 -46 -18 -49 -27 -7 -11
54 -98 127 -171 143 -69 15 -83 16 -155 17 -214 1 -423 -73 -558 -198 -15 -14
-34 -30 -42 -37 -35 -27 -140 -149 -190 -221 -48 -68 -52 -75 -114 -198 -47
-92 -126 -299 -140 -370 -3 -12 -7 -31 -9 -42 -43 -189 -52 -273 -50 -455 2
-99 8 -156 23 -215 11 -44 22 -84 23 -90 1 -5 6 -16 10 -22 5 -7 5 -13 0 -13
-4 0 -3 -4 2 -8 6 -4 19 -25 30 -46 29 -58 121 -148 191 -189 192 -110 476
-92 654 42 78 59 166 146 216 214 24 32 44 58 45 56 0 -4 5 -23 12 -51 24
-100 68 -168 154 -239 22 -18 95 -49 138 -57 38 -8 221 -8 260 1 17 3 43 9 60
12 44 9 171 64 199 86 13 10 27 19 30 19 17 0 206 185 206 200 0 6 5 10 10 10
6 0 10 -8 10 -18 0 -25 34 -116 59 -156 30 -48 115 -123 166 -146 193 -88 461
-43 705 118 63 42 165 144 187 185 11 22 18 26 26 18 6 -6 12 -17 13 -24 8
-57 92 -175 165 -232 131 -103 360 -134 647 -89 20 3 45 10 55 15 9 5 17 7 17
4 0 -6 115 37 166 63 21 11 43 20 48 20 5 0 12 4 15 9 3 5 28 25 56 43 57 39
173 152 231 225 89 111 170 257 213 385 13 36 26 72 30 80 4 8 16 49 25 90 10
41 20 82 23 90 3 8 7 26 9 39 2 13 7 44 13 70 13 60 25 208 24 296 -2 348 -99
582 -275 668 -90 44 -219 62 -313 43 -16 -3 -41 -8 -53 -11 -13 -2 -63 -24
-110 -47 -48 -24 -90 -44 -94 -46 -3 -2 -2 14 2 35 5 21 12 54 15 73 3 19 10
51 15 70 5 19 12 50 15 69 3 19 7 37 9 40 2 3 7 22 10 41 3 19 12 66 21 105 9
38 18 81 21 95 2 14 11 54 19 90 8 36 17 79 20 95 3 17 14 73 26 125 27 121
27 116 10 112 -8 -2 -35 -5 -60 -8 -78 -9 -105 -12 -136 -17 -27 -5 -54 -8
-162 -23 -92 -12 -111 -14 -143 -19 -132 -18 -117 -12 -123 -45 -3 -14 -17
-81 -32 -150 -25 -113 -30 -140 -39 -190 -2 -15 -38 -175 -56 -255 -16 -70
-43 -199 -46 -220 -1 -11 -16 -81 -33 -155 -16 -74 -32 -146 -34 -160 -3 -14
-10 -44 -16 -68 -7 -24 -14 -55 -16 -70 -3 -28 -8 -52 -70 -337 -20 -93 -38
-177 -40 -185 -26 -131 -70 -321 -85 -365 -29 -83 -72 -153 -132 -215 -70 -71
-132 -102 -217 -107 -86 -6 -138 11 -169 57 -22 32 -23 42 -19 115 5 76 8 95
21 156 20 89 48 227 51 244 2 11 11 52 20 90 9 39 18 81 20 95 3 14 8 36 11
50 3 14 8 34 10 45 2 11 6 29 8 40 14 63 58 274 62 295 3 14 7 32 9 40 2 8 7
29 10 45 2 17 7 39 9 50 2 11 23 107 46 214 23 106 39 195 36 198 -7 7 -597 6
-604 -1 -5 -5 -97 -421 -117 -531 -4 -16 -24 -113 -46 -214 -21 -101 -41 -193
-43 -205 -3 -11 -18 -84 -35 -161 -32 -151 -38 -180 -46 -222 -19 -101 -100
-259 -166 -324 -53 -52 -98 -72 -173 -77 -87 -5 -137 12 -166 60 -18 29 -21
44 -17 118 5 86 7 95 33 210 8 36 17 81 20 100 3 19 8 38 10 41 2 3 6 21 9 40
3 19 26 127 51 241 25 113 47 219 49 235 3 15 18 87 34 159 16 73 32 145 35
160 3 16 21 103 41 194 19 91 38 179 41 195 3 17 9 46 14 65 5 19 11 46 14 60
9 46 46 223 81 385 64 297 68 316 58 326 -5 5 -11 7 -14 5z m-944 -1117 c38
-18 84 -85 86 -124 1 -16 -6 -64 -16 -105 -20 -92 -26 -118 -30 -150 -2 -14
-4 -25 -5 -25 -1 0 -3 -7 -5 -15 -11 -53 -38 -176 -51 -240 -9 -41 -18 -83
-20 -92 -17 -73 -24 -110 -38 -180 -3 -13 -12 -55 -20 -94 -9 -39 -18 -88 -22
-110 -11 -69 -73 -184 -129 -240 -47 -46 -125 -94 -165 -101 -135 -25 -234 46
-256 183 -13 80 -7 281 10 371 3 11 7 41 11 65 4 24 20 93 36 153 16 61 31
119 34 130 9 35 35 100 89 219 90 195 223 339 339 366 46 11 117 6 152 -11z
m3266 -43 c51 -21 89 -69 122 -153 15 -39 22 -64 33 -133 6 -35 6 -238 0 -258
-3 -10 -7 -44 -11 -76 -7 -70 -70 -322 -92 -375 -9 -20 -26 -59 -39 -88 -13
-28 -24 -54 -24 -57 0 -19 -103 -170 -144 -210 -67 -65 -119 -88 -201 -85 -99
3 -162 38 -189 103 -21 51 -20 122 4 231 11 50 23 104 26 120 3 17 24 111 46
210 22 99 42 191 44 205 2 14 11 57 20 95 9 39 18 79 20 90 2 11 7 34 11 50 4
17 7 32 8 35 1 3 5 25 10 50 10 52 12 59 14 63 2 1 4 16 6 32 7 59 27 102 55
119 68 40 220 57 281 32z"/>
<path d="M6899 4566 c-2 -2 -26 -7 -54 -10 -91 -12 -350 -47 -375 -51 -14 -2
-47 -7 -75 -11 -27 -3 -59 -7 -70 -9 -11 -1 -26 -3 -33 -4 -10 -1 -32 -39 -34
-61 -1 -7 -107 -311 -115 -330 -8 -19 -8 -19 -18 -55 -4 -16 -11 -34 -15 -40
-4 -5 -17 -39 -30 -75 -44 -121 -176 -414 -251 -558 -54 -101 -84 -148 -105
-161 -65 -41 -136 -128 -167 -208 -31 -80 -39 -212 -17 -294 7 -24 13 -48 15
-54 4 -19 41 -90 67 -131 71 -110 225 -202 383 -229 60 -11 212 -12 275 -2 30
5 66 10 80 12 14 2 25 4 25 5 0 1 7 3 16 5 142 27 296 107 396 204 18 17 37
31 43 31 5 0 10 4 10 9 0 5 8 11 18 14 27 9 64 32 145 92 26 19 49 35 52 35 5
0 37 25 64 50 9 8 35 28 56 44 51 38 275 260 275 272 0 5 -37 9 -84 8 -80 -1
-87 -2 -123 -33 -46 -38 -40 -34 -136 -99 -43 -28 -80 -52 -84 -52 -4 0 -14
-6 -22 -14 -15 -13 -16 0 -16 147 0 148 -10 358 -20 432 -2 17 -7 73 -10 125
-4 52 -8 113 -10 135 -2 22 -6 85 -9 140 -3 55 -8 136 -11 180 -8 121 -15 255
-21 405 -5 132 -7 144 -15 136z m-592 -598 c1 -32 12 -173 13 -173 1 0 3 -20
5 -45 5 -73 15 -181 21 -235 3 -27 7 -81 9 -120 3 -38 7 -86 9 -105 30 -246
21 -414 -30 -512 -53 -102 -192 -170 -339 -164 -151 5 -222 75 -240 239 -5 42
-4 43 29 22 13 -9 43 -17 67 -19 109 -8 198 81 200 202 2 58 -11 87 -57 127
l-35 31 84 174 c97 202 121 253 149 324 11 28 25 62 31 76 6 14 11 27 12 30 0
3 12 37 25 75 13 39 25 73 26 78 1 4 2 9 3 12 3 15 17 2 18 -17z"/>
</g>
</svg>
