<svg version="1.1" viewBox="0.0 0.0 192.0 124.8005249343832" fill="none" stroke="none" stroke-linecap="square" stroke-miterlimit="10" xmlns:xlink="http://www.w3.org/1999/xlink" xmlns="http://www.w3.org/2000/svg"><clipPath id="p.0"><path d="m0 0l192.0 0l0 124.80052l-192.0 0l0 -124.80052z" clip-rule="nonzero"/></clipPath><g clip-path="url(#p.0)"><path fill="#000000" fill-opacity="0.0" d="m0 0l192.0 0l0 124.80052l-192.0 0z" fill-rule="evenodd"/><path fill="#000000" fill-opacity="0.0" d="m-1.5643044E-4 0.0074700788l192.0 0l0 124.7874l-192.0 0z" fill-rule="evenodd"/><path fill="#7fa00e" d="m22.51176 101.44179q-6.078125 0 -10.140625 -4.15625q-4.046875 -4.15625 -4.046875 -13.015625q0 -7.890625 3.140625 -16.578125q3.15625 -8.703125 9.390625 -14.71875q6.25 -6.03125 14.890625 -6.03125q4.359375 0 6.484375 1.5q2.140625 1.484375 2.140625 3.9375l0 0.421875l5.234375 -24.53125l15.781246 -2.125l-12.265621 57.59375q-0.421875 1.59375 -0.421875 3.40625q0 2.140625 1.015625 3.046875q1.015625 0.90625 3.359375 0.90625q2.984375 0 5.171875 -2.5625q2.1874962 -2.5625 3.4687462 -6.828125l4.46875 0q-6.499996 19.09375 -21.437496 19.09375q-4.375 0 -7.09375 -2.34375q-2.71875 -2.34375 -3.359375 -6.828125q-2.765625 4.265625 -6.65625 7.046875q-3.890625 2.765625 -9.125 2.765625zm6.9375 -10.34375q2.5625 0 5.171875 -2.34375q2.609375 -2.359375 3.578125 -6.515625l0 -0.53125l5.21875 -24.421875q-0.953125 -3.734375 -4.375 -3.734375q-4.265625 0 -7.6875 4.96875q-3.40625 4.953125 -5.328125 11.9375q-1.90625 6.984375 -1.90625 12.3125q0 5.34375 1.53125 6.84375q1.546875 1.484375 3.796875 1.484375zm54.07269 -49.390625q-3.515625 0 -5.96875 -2.453125q-2.453125 -2.453125 -2.453125 -5.96875q0 -3.515625 2.453125 -6.015625q2.453125 -2.515625 5.96875 -2.515625q3.515625 0 6.015625 2.515625q2.515625 2.5 2.515625 6.015625q0 3.515625 -2.515625 5.96875q-2.5 2.453125 -6.015625 2.453125zm-7.25 59.734375q-5.125 0 -8.28125 -3.203125q-3.140625 -3.203125 -3.140625 -9.59375q0 -2.671875 0.859375 -6.9375l7.25 -34.234375l15.359375 0l-7.671875 36.265625q-0.4375 1.59375 -0.4375 3.40625q0 2.140625 1.015625 3.046875q1.015625 0.90625 3.359375 0.90625q3.09375 0 5.75 -2.609375q2.671875 -2.625 3.859375 -6.78125l4.46875 0q-3.9375 11.515625 -10.125 15.625q-6.1875 4.109375 -12.265625 4.109375zm32.102234 0q-7.25 0 -11.09375 -3.5625q-3.84375 -3.578125 -3.84375 -10.09375q0 -3.203125 0.75 -6.078125l11.40625 -53.4375l15.796875 -2.125l-5.125 24.0q2.984375 -1.8125 4.90625 -2.390625q1.921875 -0.59375 3.84375 -0.59375q12.578133 0 12.578133 18.234375q0 7.359375 -2.828125 15.734375q-2.828125 8.359375 -9.390633 14.34375q-6.546875 5.96875 -17.0 5.96875zm5.96875 -10.34375q3.3125 0 6.1875 -4.109375q2.875 -4.109375 4.578125 -10.234375q1.71875 -6.140625 1.71875 -11.796875q0 -4.265625 -1.5 -7.25q-1.484375 -2.984375 -4.15625 -2.984375q-1.59375 0 -3.578125 0.484375q-1.96875 0.484375 -2.71875 1.4375l-5.859375 27.09375q-0.328125 1.28125 -0.328125 2.453125q0 4.90625 5.65625 4.90625zm39.355415 10.34375q-5.109375 0 -8.640625 -1.96875q-3.515625 -1.984375 -5.21875 -5.125q-1.703125 -3.140625 -1.703125 -6.5625q0 -3.515625 1.65625 -6.125q1.640625 -2.625 3.984375 -3.796875q4.171875 -7.453125 7.25 -15.078125q3.09375 -7.640625 5.875 -16.484375l15.78125 -2.140625q0.53125 13.65625 1.8125 29.546875q0.53125 6.40625 0.53125 9.28125q0 2.453125 -0.421875 4.046875q5.015625 -2.875 7.6875 -5.328125l4.46875 0q-6.828125 7.890625 -16.3125 13.328125q-3.09375 3.3125 -7.625 4.859375q-4.53125 1.546875 -9.125 1.546875zm-3.40625 -8.421875q3.9375 0 6.609375 -2.34375q2.671875 -2.359375 2.671875 -7.578125q0 -3.203125 -0.640625 -8.96875q-1.078125 -12.15625 -1.390625 -16.3125q-2.5625 8.421875 -8.640625 20.15625q2.453125 1.28125 2.453125 3.734375q0 2.03125 -1.34375 3.640625q-1.328125 1.59375 -3.34375 1.59375q-2.25 0 -2.890625 -1.390625q0 3.84375 1.546875 5.65625q1.546875 1.8125 4.96875 1.8125z" fill-rule="nonzero"/></g></svg>