<?xml version="1.0" encoding="utf-8"?>
<!-- Generator: Adobe Illustrator 16.0.0, SVG Export Plug-In . SVG Version: 6.00 Build 0)  -->
<!DOCTYPE svg PUBLIC "-//W3C//DTD SVG 1.1//EN" "http://www.w3.org/Graphics/SVG/1.1/DTD/svg11.dtd">
<svg version="1.1" id="Capa_1" xmlns="http://www.w3.org/2000/svg" xmlns:xlink="http://www.w3.org/1999/xlink" x="0px" y="0px"
	 width="559.998px" height="457.414px" viewBox="200.002 51.296 559.998 457.414"
	 enable-background="new 200.002 51.296 559.998 457.414" xml:space="preserve">
<rect x="6.5" y="-139.5" fill="#FFFFFF" width="842" height="684"/>
<path fill="#262626" d="M641.67,166.02v-43.63c15.04,1.08,20.63,7.96,25.79,7.96c6.45,0,9.46-8.17,9.46-12.25
	c0-10.53-20.64-15.05-35.25-15.48v-5.8c0-2.58-3.229-4.94-6.45-4.94c-3.649,0-6.229,2.36-6.229,4.94v6.23
	c-20.42,2.15-40.84,12.9-40.84,39.98c0,27.51,21.489,35.24,40.84,42.12v50.51c-14.021-1.1-21.45-7.66-26.84-12.24
	c-5.15-0.9-10.46-0.71-15.551,0.56c-1.439,2.25-2.319,4.9-2.319,7.17c0,2.87,1.34,6.03,3.84,9.12c2.45-0.93,5.03-1.39,7.62-1.39
	c4.34,0,8.68,1.3,12.38,3.91l-7.23,7.23c4.86,2.43,10.65,4.39,17.181,5.5c3.439,0.58,7.09,0.93,10.92,0.99v6.66
	c0,2.58,2.58,4.94,6.229,4.94c3.23,0,6.45-2.36,6.45-4.94v-7.31c23.21-3.22,39.11-17.84,39.11-44.27
	C680.78,182.36,660.37,172.9,641.67,166.02z M609.64,140.88c0-11.18,8.601-16.55,20.641-18.06v39.12
	C618.88,157.64,609.64,153.13,609.64,140.88z M640.38,235.23v-45.35c10.53,4.51,18.91,10.53,18.91,24.07
	C659.29,226.2,651.98,233.08,640.38,235.23z"/>
<path fill="#262626" d="M721.93,89.36c-22.88-22.88-53.26-36.34-85.55-37.91c-30.92-1.5-61.149,7.97-85.51,26.72l-6.15-0.71
	c-18.479-2.12-56.95-6.53-66-7.61c-13.15-1.57-26.55,2.36-36.76,10.81l-78.4,64.86c-12.62,10.44-21.6,24.32-25.97,40.13
	c-8.65,31.35-24.71,86.71-35.99,108.99l-34.41,34.41l-2.26-2.27c-3.61-3.61-8.42-5.601-13.52-5.601c-5.11,0-9.91,1.99-13.52,5.601
	l-32.3,32.3c-7.45,7.46-7.45,19.58,0,27.04l8.57,8.57c3.13,3.13,8.2,3.13,11.33,0c3.13-3.141,3.13-8.21,0-11.341l-8.56-8.569
	c-0.79-0.78-0.91-1.7-0.91-2.181c0-0.479,0.12-1.399,0.91-2.18l32.3-32.3c0.78-0.79,1.7-0.91,2.18-0.91s1.39,0.12,2.18,0.91
	l7.93,7.93c0,0,0,0,0.01,0.01l50.55,50.551l58.5,58.51c0.79,0.78,0.91,1.7,0.91,2.18c0,0.48-0.12,1.391-0.91,2.181l-32.29,32.3
	c-0.79,0.79-1.71,0.899-2.19,0.899c-0.47,0-1.39-0.109-2.18-0.899L225.49,383.35c-3.57-3.56-5.365,0.525-8.74,3.775
	c-3.188,3.07-5.72,4.436-2.59,7.565l108.43,108.43c3.72,3.72,8.62,5.59,13.51,5.59c4.9,0,9.8-1.87,13.52-5.59l32.3-32.3
	c3.61-3.61,5.6-8.41,5.6-13.521c0-5.109-1.99-9.91-5.6-13.52l-2.31-2.311l5.02-5.01c4.32-4.32,9.7-7.5,15.56-9.2
	c0.11-0.029,0.22-0.069,0.33-0.1l58.76-19.79c19.94-6.84,37.39-19.2,50.46-35.73l29.43-37.22l78.9-78.9l7.64-7.64
	c14.56-14.56,16.28-31.01,4.56-43.04c-0.409-0.49-0.84-0.96-1.279-1.42c-5.721-5.88-14.49-9.29-25.561-9.88
	c-27.18-1.48-64.72,13.67-85.5,34.44c-13.239,13.25-28.29,28.3-36.58,36.6c-2.57,2.57-6.02,3.99-9.7,3.99h-0.3
	c-5.52,0-13.17-5.99-15.26-11.74l-0.01-78.87l26.27-21.61l20.771-3.19c-4.08,18.48-4.101,37.72,0.02,56.31
	c0.83,3.74,4.141,6.29,7.82,6.29c0.57,0,1.15-0.06,1.74-0.19c4.319-0.96,7.05-5.24,6.09-9.56c-4.4-19.86-3.42-40.56,2.82-59.88
	c0.029-0.07,0.04-0.14,0.06-0.21c0.01-0.02,0.021-0.04,0.03-0.07c5.59-17.13,14.92-32.32,27.76-45.15c2.72-2.73,5.61-5.34,8.6-7.78
	c0.07-0.05,0.131-0.11,0.19-0.16c0.01-0.01,0.03-0.02,0.04-0.03c21.74-17.66,49.2-26.64,77.31-25.27
	c28.311,1.38,54.94,13.18,75,33.24c21.521,21.52,33.37,50.13,33.37,80.57c0,30.43-11.85,59.05-33.37,80.57
	c-28.38,28.37-70.18,39.78-109.09,29.76c-4.29-1.1-8.66,1.48-9.76,5.771c-1.11,4.28,1.47,8.649,5.76,9.76
	c10.641,2.74,21.58,4.11,32.521,4.11c11.17,0,22.34-1.431,33.189-4.29c22.13-5.82,42.44-17.5,58.71-33.78
	c24.551-24.55,38.07-57.18,38.07-91.9S746.48,113.91,721.93,89.36z M574.94,275.98l-7.53-7.53c-1.36-1.36-2.101-3.16-2.101-5.08
	s0.74-3.73,2.101-5.08l13.12-13.12c2.22-2.22,4.819-3.86,7.59-4.9c2.45-0.93,5.03-1.39,7.62-1.39c4.34,0,8.68,1.3,12.38,3.91
	l-7.23,7.23L574.94,275.98z M508.09,136.18l-30.35,4.65c-1.42,0.22-2.76,0.82-3.88,1.74l-30.89,25.42
	c-1.85,1.52-2.92,3.79-2.92,6.19v83.86c0,0.7,0.09,1.39,0.27,2.07c3.49,13.04,17.99,24.49,31.03,24.49h0.3
	c7.97,0,15.44-3.09,21.041-8.689c8.29-8.3,23.329-23.34,36.579-36.59c17.641-17.64,50.521-30.99,73.301-29.77
	c5.199,0.28,12.109,1.49,15.489,5.69c0.181,0.22,0.37,0.43,0.57,0.64c1.7,1.7,6.311,6.31,0.43,15.09
	c-5.04-3.99-10.869-6.52-16.909-7.55c-5.15-0.9-10.46-0.71-15.551,0.56c-6.38,1.59-12.42,4.87-17.409,9.85l-13.11,13.12
	c-4.39,4.38-6.8,10.22-6.8,16.42c0,6.2,2.41,12.03,6.8,16.41l7.53,7.53L527.51,323.41c-0.22,0.22-0.43,0.46-0.62,0.7l-29.72,37.59
	c-11.17,14.109-26.07,24.67-43.05,30.49l-58.56,19.72c-8.39,2.46-16.08,7.03-22.26,13.21l-5.02,5.02l-44.86-44.87l-44.89-44.88
	l35.29-35.3c0.58-0.57,1.06-1.22,1.43-1.939c12-22.86,28.83-80.76,37.8-113.23c3.48-12.63,10.65-23.71,20.73-32.05l78.4-64.86
	c6.84-5.66,15.82-8.3,24.63-7.24c7.95,0.95,38.39,4.45,58.27,6.73C523.14,105.23,514.09,119.89,508.09,136.18z"/>
</svg>
