<?xml version="1.0" encoding="utf-8"?>
<!-- Generator: Adobe Illustrator 16.0.0, SVG Export Plug-In . SVG Version: 6.00 Build 0)  -->
<!DOCTYPE svg PUBLIC "-//W3C//DTD SVG 1.1//EN" "http://www.w3.org/Graphics/SVG/1.1/DTD/svg11.dtd">
<svg version="1.1" id="Layer_1" xmlns="http://www.w3.org/2000/svg" xmlns:xlink="http://www.w3.org/1999/xlink" x="0px" y="0px"
	 width="558.483px" height="235.12px" viewBox="0 0 558.483 235.12" enable-background="new 0 0 558.483 235.12"
	 xml:space="preserve">
<g opacity="0.5">
	<path fill="#F9F9F9" d="M469.321,10.677C464.194,4.805,453.622,0,445.827,0H14.173C6.378,0,0,6.378,0,14.173v206.774
		c0,7.795,6.378,14.173,14.173,14.173h431.654c7.795,0,18.431-4.749,23.634-10.553l85.078-94.895
		c5.203-5.804,5.267-15.357,0.14-21.229L469.321,10.677z M491.189,138c-11.289,0-20.439-9.149-20.439-20.439
		s9.15-20.44,20.439-20.44c11.291,0,20.44,9.15,20.44,20.44S502.48,138,491.189,138z"/>
</g>
</svg>
