<svg version="1.1" viewBox="0.0 0.0 96.0 96.0" fill="none" stroke="none" stroke-linecap="square" stroke-miterlimit="10" xmlns:xlink="http://www.w3.org/1999/xlink" xmlns="http://www.w3.org/2000/svg"><clipPath id="p.0"><path d="m0 0l96.0 0l0 96.0l-96.0 0l0 -96.0z" clip-rule="nonzero"/></clipPath><g clip-path="url(#p.0)"><path fill="#000000" fill-opacity="0.0" d="m0 0l96.0 0l0 96.0l-96.0 0z" fill-rule="evenodd"/><path fill="#ffffff" fill-opacity="0.5038" d="m13.118111 48.0l0 0c0 -9.932426 15.617153 -17.984251 34.88189 -17.984251l0 0c19.264732 0 34.88189 8.051825 34.88189 17.984251l0 0c0 9.932426 -15.617157 17.984253 -34.88189 17.984253l0 0c-19.264736 0 -34.88189 -8.0518265 -34.88189 -17.984253z" fill-rule="evenodd"/><path stroke="#a9d612" stroke-width="2.0" stroke-linejoin="round" stroke-linecap="butt" d="m13.118111 48.0l0 0c0 -9.932426 15.617153 -17.984251 34.88189 -17.984251l0 0c19.264732 0 34.88189 8.051825 34.88189 17.984251l0 0c0 9.932426 -15.617157 17.984253 -34.88189 17.984253l0 0c-19.264736 0 -34.88189 -8.0518265 -34.88189 -17.984253z" fill-rule="evenodd"/><path fill="#000000" fill-opacity="0.0" d="m-7.821522E-5 0.005746194l96.0 0l0 96.0l-96.0 0z" fill-rule="evenodd"/><path fill="#a9d612" d="m31.458982 56.68637q-1.359375 0 -2.28125 -0.9375q-0.90625 -0.9375 -0.90625 -2.921875q0 -1.78125 0.703125 -3.734375q0.71875 -1.953125 2.109375 -3.3125q1.4062481 -1.359375 3.359373 -1.359375q0.984375 0 1.453125 0.34375q0.484375 0.328125 0.484375 0.890625l0 0.09375l1.171875 -5.515625l3.5625 -0.484375l-2.765625 12.953125q-0.09375 0.359375 -0.09375 0.765625q0 0.484375 0.21875 0.6875q0.234375 0.203125 0.765625 0.203125q0.671875 0 1.15625 -0.578125q0.5 -0.578125 0.78125 -1.53125l1.015625 0q-1.46875 4.296875 -4.828125 4.296875q-0.984375 0 -1.59375 -0.53125q-0.609375 -0.53125 -0.75 -1.53125q-0.625 0.953125 -1.5 1.578125q-0.875 0.625 -2.062498 0.625zm1.5624981 -2.328125q0.578125 0 1.15625 -0.515625q0.59375 -0.53125 0.8125 -1.46875l0 -0.125l1.171875 -5.5q-0.203125 -0.828125 -0.984375 -0.828125q-0.953125 0 -1.71875 1.109375q-0.765625 1.109375 -1.203125 2.6875q-0.4374981 1.578125 -0.4374981 2.765625q0 1.203125 0.3437481 1.546875q0.359375 0.328125 0.859375 0.328125zm12.178085 -11.109375q-0.796875 0 -1.359375 -0.546875q-0.546875 -0.5625 -0.546875 -1.34375q0 -0.796875 0.546875 -1.359375q0.5625 -0.5625 1.359375 -0.5625q0.78125 0 1.34375 0.5625q0.5625 0.5625 0.5625 1.359375q0 0.78125 -0.5625 1.34375q-0.5625 0.546875 -1.34375 0.546875zm-1.640625 13.4375q-1.15625 0 -1.859375 -0.71875q-0.703125 -0.71875 -0.703125 -2.15625q0 -0.609375 0.1875 -1.5625l1.625 -7.703125l3.46875 0l-1.734375 8.15625q-0.09375 0.359375 -0.09375 0.765625q0 0.484375 0.21875 0.6875q0.234375 0.203125 0.765625 0.203125q0.6875 0 1.28125 -0.578125q0.609375 -0.59375 0.875 -1.53125l1.015625 0q-0.890625 2.59375 -2.28125 3.515625q-1.390625 0.921875 -2.765625 0.921875zm7.2204742 0q-1.625 0 -2.5 -0.796875q-0.859375 -0.8125 -0.859375 -2.265625q0 -0.71875 0.171875 -1.375l2.5625 -12.015625l3.5625 -0.484375l-1.15625 5.390625q0.671875 -0.40625 1.09375 -0.53125q0.4375 -0.140625 0.875 -0.140625q2.828125 0 2.828125 4.109375q0 1.65625 -0.640625 3.546875q-0.625 1.875 -2.109375 3.21875q-1.46875 1.34375 -3.828125 1.34375zm1.34375 -2.328125q0.75 0 1.390625 -0.921875q0.65625 -0.921875 1.03125 -2.296875q0.390625 -1.390625 0.390625 -2.65625q0 -0.96875 -0.34375 -1.640625q-0.328125 -0.671875 -0.921875 -0.671875q-0.359375 0 -0.8125 0.109375q-0.4375 0.109375 -0.609375 0.328125l-1.3125 6.09375q-0.078125 0.296875 -0.078125 0.5625q0 1.09375 1.265625 1.09375zm8.8591 2.328125q-1.15625 0 -1.953125 -0.4375q-0.78125 -0.453125 -1.15625 -1.15625q-0.390625 -0.703125 -0.390625 -1.46875q0 -0.796875 0.375 -1.375q0.359375 -0.59375 0.890625 -0.859375q0.9375 -1.6875 1.625 -3.390625q0.703125 -1.71875 1.328125 -3.71875l3.5625038 -0.484375q0.109375 3.078125 0.40625 6.65625q0.109375 1.4375 0.109375 2.078125q0 0.5625 -0.09375 0.921875q1.125 -0.65625 1.734375 -1.203125l1.0 0q-1.53125 1.78125 -3.671875 3.0q-0.6875 0.75 -1.7187538 1.09375q-1.015625 0.34375 -2.046875 0.34375zm-0.765625 -1.890625q0.890625 0 1.484375 -0.53125q0.609375 -0.53125 0.609375 -1.703125q0 -0.71875 -0.15625 -2.015625q-0.234375 -2.734375 -0.3125 -3.671875q-0.5625 1.890625 -1.9375 4.53125q0.546875 0.296875 0.546875 0.84375q0 0.453125 -0.296875 0.8125q-0.296875 0.359375 -0.75 0.359375q-0.515625 0 -0.65625 -0.3125q0 0.875 0.34375 1.28125q0.359375 0.40625 1.125 0.40625z" fill-rule="nonzero"/></g></svg>