<?xml version="1.0" encoding="utf-8"?>
<!-- Generator: Adobe Illustrator 16.0.0, SVG Export Plug-In . SVG Version: 6.00 Build 0)  -->
<!DOCTYPE svg PUBLIC "-//W3C//DTD SVG 1.1//EN" "http://www.w3.org/Graphics/SVG/1.1/DTD/svg11.dtd">
<svg version="1.1" id="Layer_1" xmlns="http://www.w3.org/2000/svg" xmlns:xlink="http://www.w3.org/1999/xlink" x="0px" y="0px"
	 width="202px" height="75.225px" viewBox="0 0 202 75.225" enable-background="new 0 0 202 75.225" xml:space="preserve">
<ellipse opacity="0.3" fill="#4C4C4C" cx="97.629" cy="37.864" rx="67.291" ry="32.75"/>
<path fill="#9FED3A" d="M62.26,30.637v15.95c0,4.109-2.54,6.239-4.6,6.239c-1.78,0-5.24-0.149-5.24-10.21
	c0-1.119,0.06-2.319,0.19-3.54c0.02-0.27,0.05-0.55,0.09-0.829c0.65-5.2,2.51-10.37,6.1-10.37
	C61.14,27.877,62.06,29.847,62.26,30.637z"/>
<path fill="#9FED3A" d="M119.27,38.287c-1.279-0.64-1.92-1.979-1.92-3.899c0-0.84,0.221-1.561,0.57-2.05
	c-0.061-0.141-0.131-0.28-0.2-0.42c-0.13-0.271-0.28-0.53-0.44-0.761c-1.01-1.609-2.34-2.51-3.899-2.51
	c-1.13,0-2.97,0.43-3.681,1.28v18.71c0,3.05,1.49,4.189,3.551,4.189c4.949,0,6.16-6.529,6.16-11.92
	C119.41,39.987,119.34,39.137,119.27,38.287z M119.27,38.287c-1.279-0.64-1.92-1.979-1.92-3.899c0-0.84,0.221-1.561,0.57-2.05
	c-0.061-0.141-0.131-0.28-0.2-0.42c-0.13-0.271-0.28-0.53-0.44-0.761c-1.01-1.609-2.34-2.51-3.899-2.51
	c-1.13,0-2.97,0.43-3.681,1.28v18.71c0,3.05,1.49,4.189,3.551,4.189c4.949,0,6.16-6.529,6.16-11.92
	C119.41,39.987,119.34,39.137,119.27,38.287z M201.22,22.737c-4.29-2.41-26.66-13.819-77.22-21.09
	C45.94-9.573,4.13,40.027,0.29,44.827c-0.08,0.101-0.14,0.181-0.19,0.24c-0.03,0.04-0.06,0.08-0.07,0.101
	C0.01,45.187,0,45.197,0,45.197s41.34,31.101,101,30c0.93-0.02,1.859-0.05,2.789-0.09c1.851-0.08,3.681-0.21,5.5-0.38
	c1.811-0.17,3.601-0.39,5.381-0.65c2.22-0.319,4.4-0.699,6.561-1.149c0.68-0.141,1.369-0.29,2.049-0.44
	c1.98-0.45,3.94-0.95,5.871-1.489c1.029-0.29,2.06-0.601,3.08-0.91c0.51-0.16,1.02-0.32,1.52-0.48c2.02-0.649,4-1.35,5.949-2.09
	c1.951-0.74,3.86-1.52,5.73-2.33c1.82-0.79,3.6-1.61,5.34-2.46c0.45-0.22,0.9-0.44,1.34-0.66c0.5-0.24,1-0.5,1.49-0.75
	c2.641-1.35,5.18-2.76,7.631-4.2c1.309-0.77,2.59-1.55,3.84-2.34c1.26-0.79,2.479-1.58,3.68-2.38c1.789-1.2,3.52-2.399,5.189-3.61
	c1.11-0.8,2.19-1.609,3.24-2.409c1.061-0.801,2.08-1.591,3.07-2.38c1.48-1.19,2.9-2.36,4.25-3.5c0.9-0.771,1.76-1.521,2.6-2.25
	c0.631-0.551,1.23-1.101,1.82-1.631c0.59-0.54,1.15-1.06,1.71-1.58c0.729-0.689,1.43-1.359,2.101-2c6.01-5.81,9.27-9.84,9.27-9.84
	S201.75,23.037,201.22,22.737z M85.39,8.727c3.11,0,5.66,2.55,5.66,5.67s-2.55,5.601-5.66,5.601c-3.13,0-5.61-2.48-5.61-5.601
	S82.26,8.727,85.39,8.727z M141.6,59.708c-8.439,0-12.05-5.11-12.05-11c0-3.19,1.771-5.171,3.83-5.171
	c2.899,0,4.39,1.271,4.39,3.471c0,1.49-1.13,2.689-2.76,2.689c-0.71,0-1.63-0.199-2.13-0.92c0.71,3.34,2.56,5.32,5.239,5.32
	c2.341,0,3.48-1.061,3.48-3.97c0-6.021-2-8.431-5.51-20.23c-0.08-0.26-0.16-0.52-0.24-0.79c-0.09-0.3-0.18-0.62-0.27-0.95
	c-0.16,0.351-0.33,0.7-0.49,1.03c-0.15,0.3-0.301,0.59-0.46,0.87c-2.091,3.81-4.82,6.31-8.06,7.59c0.069,0.851,0.14,1.71,0.14,2.63
	c0,8.36-2.83,19.431-15.521,19.431c-5.689,0-9.279-2.23-10.859-5.95c-2.721,5.09-7.09,5.95-9.92,5.95
	c-4.811,0-7.561-1.91-8.871-5.11c-2.729,4.36-6.76,5.11-9.42,5.11c-4.959,0-7.449-2.48-8.439-6.53c-1.49,3.26-4.109,6.53-9.14,6.53
	c-5.95,0-12.48-4.12-12.48-16.45c0-0.99,0.05-2.01,0.16-3.04c0.02-0.271,0.05-0.55,0.09-0.82c0.94-7.77,4.86-15.92,13.29-15.92
	c2.34,0,5.46,0.42,6.66,3.76v-16.17l10.21-1.42v38.29c0,3.97,0.931,4.89,3.7,4.89c1.97,0,3.55-1.39,4.41-3.479v-0.01
	c-0.03-0.21-0.03-0.41-0.03-0.63V23.827h10.21v24.11c0,3.97,0.93,4.89,3.7,4.89c2.59,0,4.5-2.369,4.95-5.579v-0.03l0.039-13.29
	v-0.811l0.041-22.05l10.209-1.42v15.95c2.551-1.771,3.9-2.12,5.531-2.12c4.219,0,7.689,2.37,9.67,6.84
	c0.109,0.25,0.219,0.51,0.319,0.78c0.38,0.939,0.69,1.97,0.931,3.09c1.59-0.47,3.06-1.729,4.42-3.68
	c0.189-0.28,0.379-0.57,0.569-0.88c1.091-1.75,2.12-3.95,3.08-6.57l10.22-1.43c0.62,2.359,1.18,4.46,1.73,6.35
	c0.08,0.271,0.15,0.53,0.23,0.79c3.51,12.13,5.479,15.06,5.479,21.36C151.88,57.227,146.64,59.708,141.6,59.708z M117.35,34.387
	c0-0.84,0.221-1.561,0.57-2.05c-0.061-0.141-0.131-0.28-0.2-0.42c-0.13-0.271-0.28-0.53-0.44-0.761
	c-1.01-1.609-2.34-2.51-3.899-2.51c-1.13,0-2.97,0.43-3.681,1.28v18.71c0,3.05,1.49,4.189,3.551,4.189
	c4.949,0,6.16-6.529,6.16-11.92c0-0.92-0.07-1.77-0.141-2.62C117.99,37.647,117.35,36.307,117.35,34.387z M119.27,38.287
	c-1.279-0.64-1.92-1.979-1.92-3.899c0-0.84,0.221-1.561,0.57-2.05c-0.061-0.141-0.131-0.28-0.2-0.42
	c-0.13-0.271-0.28-0.53-0.44-0.761c-1.01-1.609-2.34-2.51-3.899-2.51c-1.13,0-2.97,0.43-3.681,1.28v18.71
	c0,3.05,1.49,4.189,3.551,4.189c4.949,0,6.16-6.529,6.16-11.92C119.41,39.987,119.34,39.137,119.27,38.287z M119.27,38.287
	c-1.279-0.64-1.92-1.979-1.92-3.899c0-0.84,0.221-1.561,0.57-2.05c-0.061-0.141-0.131-0.28-0.2-0.42
	c-0.13-0.271-0.28-0.53-0.44-0.761c-1.01-1.609-2.34-2.51-3.899-2.51c-1.13,0-2.97,0.43-3.681,1.28v18.71
	c0,3.05,1.49,4.189,3.551,4.189c4.949,0,6.16-6.529,6.16-11.92C119.41,39.987,119.34,39.137,119.27,38.287z"/>
<path fill="#7BB725" d="M130.57,30.507c-1.36,1.95-2.83,3.21-4.42,3.68c-0.24-1.12-0.551-2.15-0.931-3.09L130.57,30.507z"/>
<g>
	<path fill="#7BB725" d="M62.26,38.017v8.57c0,4.109-2.54,6.239-4.6,6.239c-1.78,0-5.24-0.149-5.24-10.21
		c0-1.119,0.06-2.319,0.19-3.54L62.26,38.017z"/>
	<path fill="#7BB725" d="M80.58,49.337v0.01c-0.86,2.09-2.44,3.479-4.41,3.479c-2.77,0-3.7-0.92-3.7-4.89v-11.05l8.08-0.88v12.7
		C80.55,48.927,80.55,49.127,80.58,49.337z"/>
	<path fill="#7BB725" d="M99.449,33.927l-0.039,13.29v0.03c-0.45,3.21-2.36,5.579-4.95,5.579c-2.771,0-3.7-0.92-3.7-4.89v-13.06
		L99.449,33.927z"/>
	<path fill="#7BB725" d="M119.41,40.907c0,5.391-1.211,11.92-6.16,11.92c-2.061,0-3.551-1.14-3.551-4.189v-15.84l8.021-0.88
		c0.069,0.14,0.14,0.279,0.2,0.42c-0.35,0.489-0.57,1.21-0.57,2.05c0,1.92,0.641,3.26,1.92,3.899
		C119.34,39.137,119.41,39.987,119.41,40.907z"/>
	<path fill="#7BB725" d="M202,23.197c0,0-3.26,4.03-9.27,9.84c-0.671,0.641-1.371,1.311-2.101,2c-0.56,0.521-1.12,1.04-1.71,1.58
		c-0.59,0.53-1.189,1.08-1.82,1.631c-0.84,0.739-1.699,1.489-2.6,2.25c-1.35,1.14-2.77,2.31-4.25,3.5
		c-0.99,0.789-2.01,1.579-3.07,2.38c-1.05,0.8-2.13,1.609-3.24,2.409c-1.67,1.211-3.4,2.41-5.189,3.61
		c-1.2,0.8-2.42,1.601-3.68,2.38c-1.25,0.79-2.531,1.57-3.84,2.34c-2.451,1.44-4.99,2.851-7.631,4.2c-0.49,0.25-0.99,0.51-1.49,0.75
		c-0.439,0.22-0.89,0.44-1.34,0.66c-1.74,0.85-3.52,1.67-5.34,2.46c-1.87,0.811-3.779,1.59-5.73,2.33
		c-1.949,0.74-3.93,1.44-5.949,2.09c-0.5,0.16-1.01,0.32-1.52,0.48c-1.021,0.31-2.051,0.62-3.08,0.91
		c-1.931,0.539-3.891,1.039-5.871,1.489c-0.68,0.15-1.369,0.3-2.049,0.44c-2.16,0.45-4.341,0.83-6.561,1.149
		c-1.78,0.261-3.57,0.48-5.381,0.65c-1.819,0.17-3.649,0.3-5.5,0.38c-0.93,0.04-1.859,0.07-2.789,0.09c-59.66,1.101-101-30-101-30
		s0.01-0.01,0.03-0.029c0.01-0.021,0.04-0.061,0.07-0.101c0.05-0.06,0.11-0.14,0.19-0.24l41.93-4.609
		c-0.11,1.03-0.16,2.05-0.16,3.04c0,12.33,6.53,16.45,12.48,16.45c5.031,0,7.65-3.271,9.14-6.53c0.99,4.05,3.48,6.53,8.439,6.53
		c2.66,0,6.69-0.75,9.42-5.11c1.311,3.2,4.061,5.11,8.871,5.11c2.83,0,7.199-0.86,9.92-5.95c1.58,3.72,5.17,5.95,10.859,5.95
		c12.69,0,15.521-11.07,15.521-19.431c0-0.92-0.07-1.779-0.14-2.63c3.239-1.28,5.969-3.78,8.06-7.59l1.46-0.16
		c3.51,11.8,5.51,14.21,5.51,20.23c0,2.909-1.14,3.97-3.48,3.97c-2.68,0-4.529-1.98-5.239-5.32c0.5,0.721,1.42,0.92,2.13,0.92
		c1.63,0,2.76-1.199,2.76-2.689c0-2.2-1.49-3.471-4.39-3.471c-2.06,0-3.83,1.98-3.83,5.171c0,5.89,3.61,11,12.05,11
		c5.04,0,10.28-2.48,10.28-9.58c0-6.301-1.97-9.23-5.479-21.36l54.819-6.03C201.75,23.037,202,23.197,202,23.197z"/>
</g>
</svg>
